<?xml version="1.0" encoding="utf-8"?>
<!-- Generator: Adobe Illustrator 19.0.0, SVG Export Plug-In . SVG Version: 6.00 Build 0)  -->
<svg version="1.1" id="Layer_1" xmlns="http://www.w3.org/2000/svg" xmlns:xlink="http://www.w3.org/1999/xlink" x="0px" y="0px"
	 viewBox="0 0 612 792" style="enable-background:new 0 0 612 792;" xml:space="preserve">
<style type="text/css">
	.st0{fill:#FFFFFF;stroke:#000000;stroke-miterlimit:10;}
	.st1{fill:#EE2624;stroke:#000000;stroke-miterlimit:10;}
	.st2{fill:#FCEE22;stroke:#000000;stroke-miterlimit:10;}
</style>
<path id="XMLID_1_" class="st0" d="M414.3,396"/>
<g id="XMLID_3_">
	<path id="XMLID_2_" class="st1" d="M278.2,361c0,0,26.5-90.2,101.9-2.4C380.1,358.6,331.7,438.7,278.2,361z"/>
	<path id="XMLID_4_" class="st2" d="M318.1,356.7c0,0,2.3-45.8-39.9,4.3C278.2,361,311.5,393,318.1,356.7z"/>
	<path id="XMLID_6_" class="st2" d="M244.8,339.9c0,0-27.5,36.7,35.5,18.7C280.2,358.6,270.5,313.5,244.8,339.9z"/>
	<path id="XMLID_7_" class="st2" d="M248,384.8c0,0,21.7,40.5,32-24.2C280,360.6,234.9,350.3,248,384.8z"/>
	<path id="XMLID_5_" class="st2" d="M350.8,343.5c9.9-5.1,19.9,7.9-2.5,17.5C348.3,361,331.1,353.5,350.8,343.5z"/>
</g>
</svg>
